<svg aria-hidden="true" style="position:absolute;width:0;height:0;overflow:hidden" xmlns="http://www.w3.org/2000/svg"><defs><symbol id="icon-up" viewBox="0 0 32 32"><path d="M13.92 4.272c-.224.032-.864.208-1.44.384C7.488 6.224 4.128 10.768 4.128 16c-.016 2.112.304 3.472 1.248 5.424.624 1.28.96 1.728 2.208 2.96 1.648 1.648 2.688 2.32 4.688 3.024 1.312.464 1.552.496 3.648.512 1.904 0 2.416-.048 3.44-.368 4.128-1.296 7.168-4.432 8.272-8.512.384-1.408.384-4.496 0-5.92-1.12-4.224-4.48-7.568-8.672-8.64-1.184-.304-3.824-.416-5.04-.208zm5.568 1.536c1.696.592 2.816 1.312 4.208 2.672 2.576 2.56 3.664 6.128 2.928 9.728-1.424 7.12-9.472 10.8-15.904 7.264-.624-.336-1.552-1.088-2.336-1.856-3.008-3.04-3.952-7.136-2.56-11.152.992-2.864 3.328-5.328 6.048-6.4 1.728-.672 2.368-.784 4.448-.736 1.664.048 2.192.128 3.168.48z"/><path d="m12.912 15.328-3.008 3.008.832.768L16 13.84l2.64 2.64c2.208 2.208 2.688 2.608 2.912 2.464.784-.496.752-.56-2.352-3.664-1.632-1.632-3.024-2.96-3.12-2.96s-1.52 1.36-3.168 3.008z"/></symbol><symbol id="icon-search" viewBox="0 0 32 32"><path d="M12.844 3.164c-2.631.284-4.791 1.298-6.587 3.093-1.564 1.564-2.507 3.36-2.933 5.547-.204 1.031-.204 2.836 0 3.867.791 4.071 3.76 7.244 7.76 8.302 1.28.338 3.413.391 4.738.116 1.529-.311 3.058-.996 4.231-1.884.276-.213.56-.418.622-.471.089-.062.222.018.507.293.373.364.391.409.347.773-.018.213-.009.498.018.64.071.276 4.809 5.102 5.227 5.324.622.329 1.476.071 1.911-.578.24-.356.276-1.04.08-1.413-.222-.418-5.049-5.156-5.324-5.227a2.898 2.898 0 0 0-.64-.018c-.364.044-.409.027-.773-.347-.276-.284-.356-.418-.293-.507.053-.062.258-.347.471-.622.889-1.173 1.573-2.702 1.884-4.231.276-1.324.222-3.458-.116-4.738-1.049-3.973-4.258-6.987-8.231-7.742-.756-.142-2.311-.24-2.898-.178zm3.112 2.08c3.102.844 5.404 3.191 6.284 6.382.276.987.276 3.227 0 4.213-.889 3.236-3.164 5.511-6.4 6.4-.987.276-3.227.276-4.213 0-2.693-.738-4.711-2.409-5.858-4.853-.604-1.289-.747-2.018-.738-3.698.009-1.716.133-2.329.791-3.707 1.173-2.489 3.378-4.24 6.089-4.836 1.049-.231 3.022-.187 4.044.098z"/><path d="M13.004 6.356c-2.907.524-5.404 2.693-6.338 5.511-.249.729-.498 2.347-.418 2.676.036.16.036.16.107-.009.676-1.671 1.769-3.404 2.889-4.604 1.493-1.591 2.916-2.569 5.244-3.6.196-.08.151-.098-.311-.089-.293 0-.818.053-1.173.116z"/></symbol></defs></svg>