<svg xmlns="http://www.w3.org/2000/svg" aria-hidden="true" overflow="hidden"><defs><symbol id="pixabay-logo" viewBox="0 0 165 32"><path d="m135 10-1-2h-5c0 2-1 2-2 2h-1v15h26V10h-17zm-1 5h-5v-3h5v2zm8 8c-2 0-5-3-5-6s3-5 5-5c3 0 6 2 6 5s-3 6-6 6zm3-6c0 2-1 3-3 3s-2-1-2-3l2-3 3 3zm20-9-6 17-5-2v-3l3 1 5-11-17-7-2 5h-3l3-8 22 8zM9 7c4 0 8 4 9 8 0 4-2 8-6 9l-6 1H3v7H0V16c0-4 3-8 7-9a9 9 0 0 1 2 0zm0 14a5 5 0 1 0-5-7l-1 5v2h6zM19 7h4v18h-4V7zm14 11 5 7h4l-6-9 6-9h-5l-4 6-4-6h-4l5 9-6 9h4z"/><path d="M50 7c4 0 7 2 8 6l1 4v8h-9c-4 0-7-3-8-6a9 9 0 0 1 8-12zm5 14v-5a5 5 0 1 0-7 5h7zM69 7a9 9 0 1 1-8 8V0h3v7h5zm0 14a5 5 0 0 0 1-10h-6v6c0 2 3 5 5 4zM88 7c4 0 7 2 8 6l1 4v8h-9c-4 0-7-3-8-6a9 9 0 0 1 8-12zm6 14v-5a5 5 0 1 0-8 5h8zm22-14v17c0 4-4 8-8 8h-2v-4h4c2-1 3-3 3-5-3 3-8 2-11 0-2-2-4-5-3-8V7h3v10a5 5 0 0 0 11 0V7h3z"/></symbol><symbol id="icon-close" viewBox="0 0 32 32">
<path d="M25.333 8.547l-1.88-1.88-7.453 7.453-7.453-7.453-1.88 1.88 7.453 7.453-7.453 7.453 1.88 1.88 7.453-7.453 7.453 7.453 1.88-1.88-7.453-7.453z"></path>
</symbol><symbol id="icon-up" viewBox="0 0 32 32"><path d="m14 4-2 1c-5 1-8 6-8 11l1 5 3 3c1 2 2 3 4 3l4 1h3c4-2 8-5 9-9v-6c-1-4-5-7-9-9h-5zm5 2 5 2c2 3 3 7 3 10-2 7-10 11-16 7l-3-1c-3-3-4-8-2-12 1-2 3-5 6-6l4-1 3 1z"/><path d="m13 15-3 3 1 1 5-5 3 2 3 3-3-4-3-3-3 3z"/></symbol><symbol id="icon-search" viewBox="0 0 32 32"><path d="M13 3a11 11 0 0 0-10 9v4a11 11 0 0 0 17 6h1l1 1 5 6 2-1v-1l-6-5-1-1v-1a11 11 0 0 0 2-9 11 11 0 0 0-11-8zm3 2c3 1 5 3 6 7v4c-1 3-3 5-6 6h-4c-3 0-5-2-6-5l-1-3 1-4a9 9 0 0 1 10-5z"/><path d="M13 6a8 8 0 0 0-7 9l3-5 5-4c1 0 1 0 0 0h-1z"/></symbol></defs></svg>